<?xml version="1.0" encoding="utf-8"?>
<!-- Generator: Adobe Illustrator 27.3.1, SVG Export Plug-In . SVG Version: 6.00 Build 0)  -->
<svg version="1.1" id="Layer_1" xmlns="http://www.w3.org/2000/svg" xmlns:xlink="http://www.w3.org/1999/xlink" x="0px" y="0px"
	 viewBox="0 0 4000 3000" enable-background="new 0 0 4000 3000" xml:space="preserve">
<rect x="1215.369" y="867.007" fill="#FFFFFF" width="261.857" height="548.184"/>
<path fill="#FBB6AF" d="M1250.682,786.911l-2.293,26.14l21.707,53.956c0,0,84.688,29.967,96,13.152
	c11.312-16.815,25.376-56.255,28.127-86.216S1250.682,786.911,1250.682,786.911z"/>
<path fill="#E7EAEF" d="M1119.522,1532.588c0,0-35.312-28.428-94.013-43.104c-58.701-14.675-224.713-54.124-330.65,43.104
	s-66.726,265.075-66.726,265.075s24.764,141.019,178.854,196.051c154.089,55.032,260.782,69.019,306.608,72.688
	c45.825,3.669,143.966,32.561,143.966,32.561l121.758,9.63c0,0,240.076-49.529,322.624,0
	c82.548,49.529,196.051,47.465,196.051,47.465s330.879,91.949,329.044,119.465c-1.834,27.516,133.911,44.026,133.911,44.026
	s119.694,27.057,467.771-12.841c348.076-39.898,445.758-128.408,445.758-128.408s240.306-195.363,177.019-418.242
	s-427.414-138.497-427.414-138.497l-298.089,52.28c0,0,23.847-324.688-64.204-461.35
	c-88.051-136.662-178.395-169.376-178.395-169.376s-206.37-95.694-349.452-21.401s-184.357,77.016-291.669,335.68
	s-115.567,269.67-115.567,269.67s-59.847,112.127-254.522,77.045S1119.522,1532.588,1119.522,1532.588z"/>
<polygon fill="#383B56" stroke="#000000" stroke-width="3" stroke-miterlimit="10" points="1270.86,2415.395 1319.471,2478.223 
	1832.643,2089.331 2117.433,2486.936 2898.427,1805.917 3003.905,1909.561 3142.401,1361.994 2592.083,1518.834 2710.401,1627.064 
	2212.822,2234.248 1900.057,1810.045 "/>
<rect x="1527.905" y="2489.688" fill="#91A1CF" width="386.599" height="226.089"/>
<rect x="1966.783" y="2583.242" fill="#91A1CF" width="352.204" height="132.535"/>
<rect x="2369.892" y="2351.42" fill="#91A1CF" width="352.204" height="364.357"/>
<rect x="2776.439" y="2026.045" fill="#91A1CF" width="352.204" height="689.732"/>
<path fill="#1F2135" stroke="#231F20" stroke-width="3" stroke-miterlimit="10" d="M1002.58,2613.051c0,0-3.363,33.63-39.134,42.497
	c-35.771,8.866-83.465,19.567-88.357,35.771c-4.892,16.204-4.892,24.458-4.892,24.458h158.981h21.096
	c0,0,23.236-23.847,25.376-19.873c2.14,3.974,7.949,19.873,7.949,19.873h52.586c0,0-0.017-84.728-11.015-93.727
	c-10.998-8.999-116.781-21.84-121.979-10.528"/>
<path fill="#1F2135" stroke="#231F20" stroke-width="3" stroke-miterlimit="10" d="M1578.487,2613.051
	c0,0,3.486,33.63,40.562,42.497c37.076,8.866,86.511,19.567,91.581,35.771c5.07,16.204,5.07,24.458,5.07,24.458h-164.783h-21.865
	c0,0-24.084-23.847-26.302-19.873c-2.218,3.974-8.239,19.873-8.239,19.873h-54.505c0,0,0.018-84.728,11.417-93.727
	c11.399-8.999,121.043-21.84,126.43-10.528"/>
<path fill="none" stroke="#231F20" stroke-width="3" stroke-miterlimit="10" d="M1140.847,944.21"/>
<path fill="#FFFFFF" stroke="#231F20" stroke-width="3" stroke-miterlimit="10" d="M1248.389,805.255c0,0,9.63,13.529,20.408,23.618
	c10.777,10.089,57.783,45.631,57.783,45.631l-33.478,49.07l-42.298-42.631"/>
<polyline fill="#FFFFFF" stroke="#231F20" stroke-width="3" stroke-miterlimit="10" points="1389.864,815.792 1333.382,873.586 
	1365.79,918.223 1385.357,894.223 "/>
<path fill="#8D9DCB" stroke="#5E6E99" stroke-width="3" stroke-miterlimit="10" d="M1349.851,1058.341
	c0.019,0.002,0.042,0.002,0.06,0.004l-0.083-0.628l-5.604-150.879c0,0,4.702-11.994,4.702-14.687
	c0-2.631-7.558-24.715-23.115-15.987l-0.045-0.343c0,0-0.389,0.349-1.02,0.968c-0.013,0.008-0.026,0.014-0.039,0.023l0.002,0.013
	c-3.543,3.484-14.478,15.27-9.059,23.217c6.42,9.416,6.688,9.578,7.261,18.223s-11.339,154.2-11.339,154.2
	s29.357-15.019,38.115-14.135l0.224,1.625L1349.851,1058.341z"/>
<path fill="none" stroke="#5E6E99" stroke-width="3" stroke-miterlimit="10" d="M1322.071,909.054c0,0,10.241,5.195,22.012-2.143"/>
<polyline fill="#8D9DCB" stroke="#5E6E99" stroke-width="3" stroke-miterlimit="10" points="1331.28,1299.619 1329.102,1365.662 
	1352.605,1393.293 1384.363,1361.076 1370.529,1301.306 "/>
<path fill="#383B56" stroke="#000000" stroke-width="3" stroke-miterlimit="10" d="M1590.503,2383.064l-3.383-780.328
	c0,0-56.108-1.497-116.553-69.757s-73.013-133.697-73.013-133.697H1325.6c0,0,15.843,115.578-81.13,201.183l-2.361,0.653
	c0.72-0.423,1.082-0.653,1.082-0.653l-26.555,7.406l-136.607,38.101l-99.004,974.989l71.083,2.407l101.58-1.834l43.337-231.363
	l149.503-773.809c0,0,4.357-3.745,4.586,4.28c0.229,8.025,6.191,182.522,6.191,182.522l47.465,820.204h189.095L1590.503,2383.064z"
	/>
<path fill="#212438" d="M1078.72,1658.861h77.031c0,0,103.949-6.422,139.108-54.116c35.159-47.694,37.452-60.229,37.452-60.229
	s12.382-32.56,14.675-74.293s0-38.548,0-38.548s20.637,3.76,23.389-0.056c2.752-3.816,7.567-12.988,7.567-12.988
	s14.904,47.923,36.917,79.108c22.013,31.185,53.656,70.624,74.446,89.885c20.79,19.261,69.453,58.699,83.771,68.484
	s14.318,9.785,14.318,9.785l-0.274-63.157c0,0-80.082-52.717-82.833-71.978c-2.752-19.261-99.745-131.476-99.745-131.476H1325.6
	c0,0-244.573,196.597-246.88,215.4C1076.414,1633.484,1078.72,1658.861,1078.72,1658.861z"/>
<path fill="#383B56" stroke="#231F20" stroke-width="3" stroke-miterlimit="10" d="M1577.968,1302.987l71.694,227.771
	c0,0,7.796,14.981,9.936,42.802s0,37.605,0,37.605s-65.121-1.223-102.115-17.733c-36.994-16.51-64.662-36.994-79.796-52.815
	s-39.439-43.567-58.013-81.86c-18.573-38.293-36.688-111.21-36.688-111.21s-6.886-25.463-9.864-47.929"/>
<g>
	<path fill="#383B56" stroke="#231F20" stroke-width="3" stroke-miterlimit="10" d="M1105.313,1288.952l-22.639,156.517
		l-29.649,204.984c0,0,169.07-25.529,198.42-55.49c29.35-29.962,53.58-61.057,61.605-94.962
		c8.025-33.905,10.089-42.618,11.694-79.535c1.605-36.917,4.357-121.811,4.357-121.811v-85.757"/>
	<path fill="#383B56" stroke="#231F20" stroke-width="3" stroke-miterlimit="10" d="M1144.516,1367.955
		c-1.146,2.981-29.442,46.797-61.842,77.513"/>
</g>
<g>
	<path fill="#212438" d="M1107.14,1274.401l-11.482,81.299l176.119-106.064C1271.777,1249.637,1215.675,1162.656,1107.14,1274.401z"
		/>
	<polyline fill="#212438" points="1367.854,1282.427 1378.155,1327.452 1595.093,1357.394 1575.14,1289.535 1369.229,1282.427 	"/>
</g>
<g>
	<path fill="#383B56" stroke="#231F20" stroke-width="3" stroke-miterlimit="10" d="M1246.86,808.312l14.675,270.268l6.65-2.355
		l71.923-25.467l15.287,96.611c0,0,3.669,9.172,4.586,31.796c0.917,22.624,0.917,22.624,0.917,22.624l-203.924,71.236
		c0,0-218.293,85.299-194.752-55.338c23.541-140.637,32.56-203.771,32.56-203.771s3.822-81.783,85.758-103.796
		c73.175-19.659,113.121-33.478,113.121-33.478L1246.86,808.312z"/>
	<g>
		<polyline fill="none" stroke="#231F20" stroke-width="3" stroke-miterlimit="10" points="1104.618,1001.076 1115.166,1128.108 
			1054.631,1147.828 1208.136,1096.324 1270.823,1075.291 		"/>
		<polyline fill="none" stroke="#231F20" stroke-width="3" stroke-miterlimit="10" points="1208.136,1096.324 1169.739,1002.452 
			1159.65,979.752 1220.873,944.21 1140.847,941.612 1193.662,876.643 		"/>
	</g>
</g>
<g>
	<path fill="#383B56" stroke="#231F20" stroke-width="3" stroke-miterlimit="10" d="M1337.782,1051.582l34.275-8.467l0.612,4.051
		l6.267-0.382l11.006-232.662l53.503,55.643c0,0,108.841,14.064,137.885,32.408c29.045,18.344,36.994,7.338,55.032,82.548
		c18.038,75.21,40.968,186.803,40.968,186.803s19.873,71.236-27.516,102.115c-47.389,30.879-71.847,29.35-71.847,29.35
		l-263.541-4.334l-35.541-1.093l1.307-67.578l97.204-34.792c0,0-35.206-55.235,1.587-72.738
		c36.793-17.503,13.863-53.732,13.863-53.732l-13.863-30.726"/>
	<path fill="none" stroke="#231F20" stroke-width="3" stroke-miterlimit="10" d="M1443.446,869.764l51.669,35.924l-68.561,16.051
		l60.535,25.911l-26.255,99.516c0,0-44.33-14.939-81.85-1.392"/>
	<path fill="none" stroke="#231F20" stroke-width="3" stroke-miterlimit="10" d="M1521.713,990.07c0,0,6.42,78.65,4.586,93.554"/>
</g>
<line fill="none" stroke="#231F20" stroke-width="3" stroke-miterlimit="10" x1="1594.478" y1="1133.306" x2="1529.662" y2="1133.306"/>
<path fill="#F29B96" stroke="#000000" stroke-width="3" stroke-miterlimit="10" d="M1280.171,1231.134
	c0,0-4.878,13.458-16.343,18.962c-11.465,5.503-15.439-8.102-15.439-8.102"/>
<polygon fill="#FFFFFF" stroke="#000000" stroke-width="3" stroke-miterlimit="10" points="1260.895,1238.306 1259.395,1298.654 
	1278.885,1297.588 1280.171,1235.695 1280.823,1231.522 "/>
<line fill="none" stroke="#231F20" stroke-width="3" stroke-miterlimit="10" x1="426.58" y1="2715.777" x2="3454.707" y2="2715.777"/>
<path fill="#DD8D8A" d="M1266.335,814.121c0,0,0.703,8.713,13.697,16.204c12.994,7.49,52.739,11.465,67.72,8.102
	c14.981-3.363,31.47-9.047,39.276-19.734c7.807-10.687-111.467-18.156-120.009-4.256"/>
<path fill="#FBB6AF" d="M1219.955,658.809c0,0-33.478-5.809-40.586,13.452c-7.108,19.261-7.567,52.739,11.465,54.803
	c19.032,2.064,25.452-2.752,25.452-2.752s2.752,38.064,11.006,51.592c8.255,13.529,23.236,29.656,34.854,36.076
	s28.74,11.924,66.956,10.701c38.216-1.223,56.407,0,71.846-17.427c15.44-17.427,20.79-32.102,20.79-32.102l4.127-11.924
	c0,0,1.834-8.026,1.834-12.612s1.376-20.866,1.376-20.866s4.892-1.681,6.726,1.529s9.631,5.35,11.465,5.197
	c1.834-0.153,15.745-2.293,23.083-21.554c7.338-19.261,8.866-30.42,4.28-37.146c-4.586-6.726-19.873-14.981-33.019-15.592
	c-13.146-0.612-28.127-87.535-28.127-87.535s-122.905-82.911-149.503-46.682C1237.382,562.198,1219.955,658.809,1219.955,658.809z"
	/>
<path fill="none" stroke="#D48782" stroke-width="3" stroke-miterlimit="10" d="M1219.497,693.357c0,0-36.459-16.51-30.497,0
	c5.962,16.51,22.701,20.866,22.701,20.866"/>
<path fill="none" stroke="#D48782" stroke-width="3" stroke-miterlimit="10" d="M1435.955,689.229c0,0,25.223-11.236,23.847,1.834
	c-1.376,13.07-25.682,24.994-25.682,24.994"/>
<path fill="none" stroke="#D48782" stroke-width="3" stroke-miterlimit="10" d="M1334.834,662.172c0,0-0.688,10.548,5.274,32.79
	c5.962,22.242,11.924,30.497,2.752,31.414c-9.172,0.917-19.032,0-19.032,0"/>
<path fill="none" stroke="#D48782" stroke-width="3" stroke-miterlimit="10" d="M1298.146,736.236c0,0-2.001,19.49,27.891,15.592"/>
<path fill="none" stroke="#27283F" stroke-width="4" stroke-miterlimit="10" d="M1265.968,646.121c0,0,27.057-16.051,39.592,1.987"
	/>
<path fill="none" stroke="#27283F" stroke-width="4" stroke-miterlimit="10" d="M1357.306,649.102c0,0,24.535-19.49,38.522,0"/>
<ellipse fill="#27283F" cx="1289.032" cy="670.656" rx="14.389" ry="14.79"/>
<ellipse fill="#27283F" cx="1374.874" cy="670.656" rx="14.389" ry="14.79"/>
<path fill="#232339" stroke="#231F20" stroke-width="3" stroke-miterlimit="10" d="M1222.095,683.268
	c0,0,14.675-24.764,18.038-45.86c3.363-21.096,3.974-59.924,32.713-71.541c28.739-11.618,62.446-24.764,87.44-1.605
	c24.994,23.159,37.911,37.834,37.911,37.834s17.274,1.682,18.65,10.395c1.376,8.713,10.624,68.713,10.624,68.713l1.72,5.389
	c0,0,1.72-7.223,3.21-10.089c1.49-2.866,19.605-17.197,19.605-17.197l2.752-4.013l10.318-47.006c0,0,17.427-32.102,6.65-49.07
	c-10.777-16.968-28.892-21.784-28.892-21.784l-23.388,1.07l-0.153-35.006c0,0-28.739-39.439-60.229-43.414
	c-31.49-3.974-77.656-0.917-109.758,30.573c-32.102,31.49-34.548,41.274-34.548,41.274s-31.796,3.363-31.796,55.643
	c0,52.28,7.338,71.236,7.338,71.236S1211.395,649.331,1222.095,683.268z"/>
<polyline fill="#FFFFFF" stroke="#231F20" stroke-width="3" stroke-miterlimit="10" points="1340.108,1050.758 1371.293,1043.115 
	1405.229,1184.057 1360.898,1201.79 "/>
<path fill="#F9B3AC" stroke="#231F20" stroke-width="3" stroke-miterlimit="10" d="M1372.669,1048.828l8.251-3.727
	c0,0,17.884-7.521,40.319-4.846s46.818,9.89,46.818,9.89s31.185,3.758,40.815,8.414s16.051,14.287,12.841,22.083
	c-3.21,7.796,13.299,5.274,3.669,20.408c0,0,18.43,5.274,1.247,19.949c0,0,18.167,16.28-15.005,22.395
	c-33.172,6.115-76.739,9.172-89.58-0.917c-12.841-10.089-27.869-4.328-27.869-4.328"/>
</svg>
